<svg data-v-fde0c5aa="" xmlns="http://www.w3.org/2000/svg" viewBox="0 0 300 300" class="iconLeftSlogan"><!----><defs data-v-fde0c5aa=""><!----></defs><rect data-v-fde0c5aa="" fill="transparent" x="0" y="0" width="300px" height="300px" class="logo-background-square"></rect><defs data-v-fde0c5aa=""><!----></defs><g data-v-fde0c5aa="" id="b6539676-b57c-4224-8427-3f5ab579041b" fill="#000000" transform="matrix(3.0217068476912856,0,0,3.0217068476912856,110.96942243595728,114.9500489070461)"><path d="M2.90 12.35L2.90 12.35Q3.29 12.35 3.76 12.10Q4.23 11.84 4.23 11.34L4.23 11.34Q4.23 10.53 2.56 9.94L2.56 9.94Q2.16 9.80 1.90 9.67Q1.64 9.55 1.33 9.32Q1.02 9.10 0.87 8.78Q0.71 8.46 0.71 8.02L0.71 8.02Q0.71 7.24 1.29 6.78Q1.86 6.33 2.67 6.33L2.67 6.33Q3.15 6.33 3.65 6.54Q4.14 6.75 4.21 6.75L4.21 6.75Q4.38 6.75 4.38 6.47L4.38 6.47L4.70 6.47L4.70 8.15L4.40 8.15Q4.31 7.56 3.83 7.15Q3.35 6.75 2.72 6.75L2.72 6.75Q2.27 6.75 1.97 6.96Q1.67 7.17 1.67 7.53L1.67 7.53Q1.67 7.74 1.75 7.92Q1.83 8.09 1.92 8.20Q2.00 8.30 2.23 8.43Q2.46 8.55 2.58 8.60Q2.70 8.65 3.02 8.76Q3.33 8.88 3.44 8.92L3.44 8.92Q4.17 9.20 4.69 9.71Q5.21 10.22 5.21 10.89L5.21 10.89Q5.21 11.75 4.52 12.26Q3.84 12.77 2.79 12.77L2.79 12.77Q2.28 12.77 1.81 12.53Q1.33 12.29 1.27 12.29L1.27 12.29Q1.19 12.29 1.08 12.40Q0.97 12.52 0.97 12.63L0.97 12.63L0.63 12.63L0.63 10.65L0.94 10.65Q1.04 11.37 1.60 11.86Q2.17 12.35 2.90 12.35ZM7.59 4.44L8.19 4.44L8.19 6.47L9.39 6.47L9.39 6.89L8.19 6.89L8.19 11.34Q8.19 11.77 8.34 12.01Q8.50 12.24 8.92 12.24L8.92 12.24Q9.17 12.24 9.43 11.99Q9.69 11.75 9.79 11.31L9.79 11.31L10.12 11.48Q9.83 12.77 8.44 12.77L8.44 12.77Q6.85 12.77 6.85 11.23L6.85 11.23L6.85 6.89L5.87 6.89L5.87 6.47Q6.52 6.47 7.06 5.92Q7.59 5.38 7.59 4.44L7.59 4.44ZM11.90 7.50L11.90 7.50Q12.10 7.50 12.24 7.64Q12.39 7.78 12.39 8.08L12.39 8.08Q12.39 8.32 12.20 8.44Q12.01 8.57 11.76 8.57L11.76 8.57Q11.49 8.57 11.33 8.38Q11.16 8.19 11.16 7.87L11.16 7.87Q11.16 7.14 11.76 6.73Q12.36 6.33 13.47 6.33L13.47 6.33Q14.77 6.33 15.38 6.97Q15.99 7.62 15.99 8.68L15.99 8.68L15.99 11.45Q15.99 11.90 16.14 12.11Q16.28 12.32 16.49 12.32L16.49 12.32Q16.67 12.32 16.82 12.22Q16.97 12.12 16.97 11.98L16.97 11.98L17.22 11.98Q17.22 12.38 16.93 12.56Q16.65 12.74 15.93 12.74L15.93 12.74Q15.23 12.74 14.94 12.17L14.94 12.17Q14.11 12.77 12.88 12.77L12.88 12.77Q10.78 12.77 10.78 11.06L10.78 11.06Q10.78 10.70 11.04 10.40Q11.30 10.11 11.79 9.91Q12.28 9.72 12.71 9.60Q13.15 9.48 13.80 9.33Q14.45 9.18 14.73 9.10L14.73 9.10Q14.73 7.92 14.42 7.38Q14.11 6.83 13.33 6.83L13.33 6.83Q12.07 6.83 11.90 7.50ZM14.81 11.82L14.81 11.82Q14.73 11.51 14.73 11.06L14.73 11.06L14.73 9.41Q14.57 9.46 14.20 9.56Q13.83 9.66 13.60 9.73Q13.37 9.80 13.05 9.94Q12.73 10.08 12.54 10.22Q12.36 10.36 12.22 10.59Q12.08 10.82 12.08 11.09L12.08 11.09Q12.08 11.76 12.34 12.03Q12.60 12.29 13.12 12.29L13.12 12.29Q14.04 12.29 14.81 11.82ZM20.55 12.63L17.53 12.63L17.53 12.33Q18.28 12.33 18.41 12.05L18.41 12.05L18.41 7.32Q17.54 7.25 17.53 7.25L17.53 7.25L17.53 6.93Q17.79 6.93 18.57 6.63Q19.35 6.33 19.67 6.33L19.67 6.33L19.67 6.94Q20.37 6.33 21.06 6.33L21.06 6.33Q21.69 6.33 22.11 6.57Q22.54 6.80 22.54 7.10L22.54 7.10Q22.54 7.60 21.98 7.60L21.98 7.60Q21.69 7.60 21.45 7.20Q21.21 6.80 20.90 6.80L20.90 6.80Q20.36 6.80 19.67 7.41L19.67 7.41L19.67 12.05Q19.80 12.33 20.55 12.33L20.55 12.33L20.55 12.63ZM25.52 12.35L25.52 12.35Q25.91 12.35 26.38 12.10Q26.85 11.84 26.85 11.34L26.85 11.34Q26.85 10.53 25.19 9.94L25.19 9.94Q24.78 9.80 24.52 9.67Q24.26 9.55 23.95 9.32Q23.65 9.10 23.49 8.78Q23.34 8.46 23.34 8.02L23.34 8.02Q23.34 7.24 23.91 6.78Q24.49 6.33 25.30 6.33L25.30 6.33Q25.77 6.33 26.27 6.54Q26.77 6.75 26.84 6.75L26.84 6.75Q27.01 6.75 27.01 6.47L27.01 6.47L27.33 6.47L27.33 8.15L27.02 8.15Q26.94 7.56 26.45 7.15Q25.97 6.75 25.34 6.75L25.34 6.75Q24.89 6.75 24.59 6.96Q24.29 7.17 24.29 7.53L24.29 7.53Q24.29 7.74 24.37 7.92Q24.46 8.09 24.54 8.20Q24.63 8.30 24.86 8.43Q25.09 8.55 25.21 8.60Q25.33 8.65 25.64 8.76Q25.96 8.88 26.07 8.92L26.07 8.92Q26.80 9.20 27.31 9.71Q27.83 10.22 27.83 10.89L27.83 10.89Q27.83 11.75 27.15 12.26Q26.46 12.77 25.41 12.77L25.41 12.77Q24.91 12.77 24.43 12.53Q23.95 12.29 23.90 12.29L23.90 12.29Q23.81 12.29 23.70 12.40Q23.59 12.52 23.59 12.63L23.59 12.63L23.25 12.63L23.25 10.65L23.56 10.65Q23.66 11.37 24.23 11.86Q24.79 12.35 25.52 12.35ZM34.66 9.25L30.17 9.25Q30.18 10.43 30.85 11.33Q31.51 12.24 32.34 12.24L32.34 12.24Q33.56 12.24 34.30 11.31L34.30 11.31L34.64 11.48Q34.23 12.15 33.58 12.46Q32.93 12.77 31.86 12.77L31.86 12.77Q31.33 12.77 30.84 12.61Q30.35 12.45 29.88 12.07Q29.40 11.70 29.12 10.98Q28.84 10.25 28.84 9.24L28.84 9.24Q28.84 8.01 29.60 7.17Q30.37 6.33 31.72 6.33L31.72 6.33Q33.21 6.33 33.94 7.16Q34.66 7.99 34.66 9.25L34.66 9.25ZM30.18 8.82L30.18 8.82L33.29 8.82Q33.21 7.81 32.87 7.28Q32.52 6.75 31.67 6.75L31.67 6.75Q31.18 6.75 30.72 7.32Q30.27 7.90 30.18 8.82ZM41.57 9.25L37.07 9.25Q37.09 10.43 37.75 11.33Q38.42 12.24 39.24 12.24L39.24 12.24Q40.46 12.24 41.20 11.31L41.20 11.31L41.54 11.48Q41.13 12.15 40.48 12.46Q39.83 12.77 38.77 12.77L38.77 12.77Q38.23 12.77 37.74 12.61Q37.25 12.45 36.78 12.07Q36.30 11.70 36.02 10.98Q35.74 10.25 35.74 9.24L35.74 9.24Q35.74 8.01 36.51 7.17Q37.27 6.33 38.63 6.33L38.63 6.33Q40.11 6.33 40.84 7.16Q41.57 7.99 41.57 9.25L41.57 9.25ZM37.09 8.82L37.09 8.82L40.19 8.82Q40.11 7.81 39.77 7.28Q39.42 6.75 38.57 6.75L38.57 6.75Q38.08 6.75 37.63 7.32Q37.17 7.90 37.09 8.82ZM47.18 6.61L47.18 6.61L47.18 4.80Q47.18 4.80 46.30 4.73L46.30 4.73L46.30 4.41Q46.56 4.41 47.34 4.11Q48.12 3.81 48.44 3.81L48.44 3.81L48.44 11.77L49.32 11.84L49.32 12.17Q49.06 12.17 48.28 12.47Q47.50 12.77 47.18 12.77L47.18 12.77L47.18 12.31Q46.51 12.77 45.50 12.77L45.50 12.77Q45.04 12.77 44.58 12.61Q44.13 12.45 43.67 12.10Q43.22 11.76 42.93 11.09Q42.64 10.42 42.64 9.52L42.64 9.52Q42.64 7.95 43.52 7.11Q44.39 6.27 45.81 6.27L45.81 6.27Q46.61 6.27 47.18 6.61ZM47.18 11.84L47.18 7.04Q46.68 6.75 45.89 6.75L45.89 6.75Q45.12 6.75 44.55 7.49Q43.97 8.23 43.97 9.52L43.97 9.52Q43.97 10.37 44.47 11.33Q44.97 12.29 45.64 12.29L45.64 12.29Q46.56 12.29 47.18 11.84L47.18 11.84Z"></path></g><defs data-v-fde0c5aa=""><linearGradient data-v-fde0c5aa="" gradientTransform="rotate(25)" id="2d6d8001-83bc-423d-84da-7b95f4ec3a5a" x1="0%" y1="0%" x2="100%" y2="0%"><stop data-v-fde0c5aa="" offset="0%" stop-color="#B4373D" stop-opacity="1"></stop><stop data-v-fde0c5aa="" offset="100%" stop-color="#B23ACB" stop-opacity="1"></stop></linearGradient></defs><g data-v-fde0c5aa="" id="bfef909e-a527-4e3f-b931-3f9611439b57" stroke="none" fill="url(#2d6d8001-83bc-423d-84da-7b95f4ec3a5a)" transform="matrix(1.8710343042373176,0,0,1.8710343042373176,40,120.06345113220291)"><path d="M4.029 14.362L14.362 4.028l.707.707L4.736 15.07zM17.135 27.47L27.47 17.135l.707.707-10.333 10.333zM4.029 17.841l.707-.707 10.333 10.334-.707.707zM17.135 4.735l.708-.707L28.176 14.36l-.707.707z"></path><g><path d="M16 1.414l1.683 1.683L16 4.779l-1.683-1.683L16 1.414M16 0l-3.097 3.097L16 6.194l3.097-3.097L16 0zM16 27.221l1.683 1.683L16 30.586l-1.683-1.683L16 27.221m0-1.415l-3.097 3.097L16 32l3.097-3.097L16 25.806zM3.097 14.317L4.779 16l-1.683 1.683L1.414 16l1.683-1.683m0-1.414L0 16l3.097 3.097L6.194 16l-3.097-3.097zM28.903 14.317L30.586 16l-1.683 1.683L27.221 16l1.682-1.683m0-1.414L25.806 16l3.097 3.097L32 16l-3.097-3.097z"></path></g></g><defs data-v-fde0c5aa=""><!----></defs><g data-v-fde0c5aa="" id="d4863cbf-8441-47d6-84bf-e15ab3e7549c" fill="#000000" transform="matrix(0.2558506310539648,0,0,0.2558506310539648,112.74005541232607,162.79528132169725)"><path d="M0.52 3.51C0.52 3.75 0.60 3.77 0.77 3.77L1.30 3.77C1.36 3.77 1.36 4.12 1.36 4.55C1.36 5.66 1.34 8.96 1.34 9.42C1.34 11.13 1.60 12.80 4.45 12.80C5.53 12.80 6.69 12.38 7.35 12.00C7.60 11.86 7.90 11.72 7.98 11.72C8.25 11.72 8.51 12.74 8.85 12.74C9.17 12.74 9.18 12.35 9.18 12.25C9.18 11.96 9.24 10.08 9.28 8.16C9.34 6.12 9.32 3.77 9.44 3.77L9.76 3.77C9.98 3.77 10.05 3.75 10.05 3.56C10.05 3.32 10.01 3.26 9.81 3.26C9.67 3.26 9.14 3.30 8.72 3.30C8.30 3.30 7.50 3.26 7.28 3.26C7.10 3.26 7 3.28 7 3.51C7 3.75 7.11 3.77 7.28 3.77L7.98 3.77C8.05 3.77 8.06 4.30 8.06 4.87L8.06 9.14C8.06 11.19 8.06 11.12 7.73 11.34C7.34 11.61 6.52 12.08 5.35 12.08C3.37 12.08 2.58 11.17 2.58 9.41C2.58 8.82 2.65 3.77 2.76 3.77L3.67 3.77C3.89 3.77 3.93 3.75 3.93 3.56C3.93 3.32 3.92 3.26 3.72 3.26C3.40 3.26 2.52 3.30 2.10 3.30C1.68 3.30 0.99 3.26 0.77 3.26C0.59 3.26 0.52 3.28 0.52 3.51ZM18.09 12.39C18.09 12.63 18.10 12.68 18.30 12.68C18.48 12.68 18.86 12.64 19.47 12.64C20.10 12.64 20.66 12.68 20.99 12.68C21.15 12.68 21.15 12.61 21.15 12.40C21.15 12.24 21.15 12.18 20.99 12.18L19.78 12.18C19.74 12.18 19.73 11.54 19.73 10.79C19.73 9.46 19.74 7.48 19.74 5.99C19.74 5.25 19.74 4.84 19.75 4.28C19.75 4.02 19.82 4.14 19.95 4.28L26.84 12.66C26.92 12.75 27.01 12.89 27.12 12.89C27.23 12.89 27.30 12.77 27.30 12.54C27.30 12.39 27.47 6.65 27.48 4.48C27.48 4.06 27.51 3.70 27.54 3.70L28.17 3.70C28.39 3.70 28.45 3.68 28.45 3.49C28.45 3.25 28.45 3.19 28.25 3.19C28.06 3.19 27.62 3.23 27.06 3.23C26.45 3.23 25.65 3.19 25.55 3.19C25.38 3.19 25.38 3.26 25.38 3.47C25.38 3.64 25.38 3.70 25.55 3.70L26.85 3.70C26.87 3.70 26.87 4.33 26.87 4.44C26.87 5.85 26.89 8.33 26.89 9.70L26.89 10.29C26.89 10.57 26.88 10.65 26.66 10.37L20.97 3.39C20.86 3.25 20.83 3.19 20.66 3.19C20.58 3.19 20.20 3.23 19.89 3.23C19.60 3.23 18.52 3.19 18.33 3.19C18.16 3.19 18.13 3.26 18.13 3.47C18.13 3.64 18.16 3.70 18.33 3.70L19.24 3.70C19.24 4.17 19.19 8.53 19.12 10.79C19.10 11.69 19.11 12.18 19.00 12.18L18.35 12.18C18.13 12.18 18.09 12.19 18.09 12.39ZM36.48 12.39C36.48 12.63 36.51 12.68 36.71 12.68C37.03 12.68 38.00 12.64 38.42 12.64C38.84 12.64 43.19 12.68 43.51 12.68C43.78 12.68 43.85 12.66 43.86 12.49C43.92 12.08 44.16 10.72 44.16 10.60C44.16 10.47 44.00 10.44 43.83 10.43C43.74 10.42 43.65 10.46 43.64 10.56L43.47 11.76C43.43 12.05 43.41 12.03 43.19 12.04C43.04 12.05 40.53 12.12 39.10 12.12C39.06 12.12 39.02 11.38 39.02 10.54L39.02 6.66C39.02 5.40 39.03 3.70 39.13 3.70L40.11 3.70C40.35 3.70 40.38 3.63 40.38 3.44C40.38 3.23 40.36 3.19 40.12 3.19C39.80 3.19 38.86 3.23 38.44 3.23C38.02 3.23 37.09 3.19 36.86 3.19C36.64 3.19 36.58 3.22 36.58 3.44C36.58 3.65 36.62 3.70 36.82 3.70L37.65 3.70C37.69 3.70 37.72 4.23 37.72 4.90L37.72 8.13C37.72 10.07 37.69 12.18 37.60 12.18L36.76 12.18C36.54 12.18 36.48 12.21 36.48 12.39ZM51.70 8.15C51.70 11.17 54.04 12.80 56.29 12.80C59.08 12.80 61.05 10.89 61.05 8.06C61.05 5.33 59.30 3.11 56.50 3.11C53.90 3.11 51.70 5.10 51.70 8.15ZM53.10 7.77C53.10 5.64 54.39 3.58 56.36 3.58C58.60 3.58 59.68 5.81 59.68 7.94C59.68 10.08 58.58 12.32 56.31 12.32C54.32 12.32 53.10 10.28 53.10 7.77ZM69.23 7.91C69.23 11.31 71.60 12.87 74.19 12.87C75.96 12.87 77.74 11.90 77.78 11.59C77.95 10.29 78.01 9.70 78.01 9.66C78.01 9.56 77.97 9.52 77.80 9.51C77.74 9.51 77.69 9.49 77.64 9.49C77.53 9.49 77.48 9.53 77.45 9.70L77.27 11.33C77.25 11.45 76.15 12.24 74.58 12.24C72.45 12.24 70.74 10.29 70.74 7.94C70.74 5.42 72.17 3.54 74.17 3.54C76.02 3.54 77.36 5.01 77.36 5.17C77.36 5.29 77.31 6.40 77.31 6.45C77.31 6.59 77.35 6.64 77.62 6.64C77.81 6.64 77.88 6.62 77.88 6.44C77.88 5.73 77.94 3.92 77.94 3.67C77.94 3.47 77.83 3.44 77.62 3.44C77.39 3.44 77.36 3.50 77.36 3.67L77.36 4.05C77.36 4.16 77.32 4.16 77.20 4.06C76.92 3.86 75.94 3.04 74.27 3.04C71.43 3.04 69.23 4.96 69.23 7.91ZM86.39 12.39C86.39 12.63 86.41 12.68 86.60 12.68C86.93 12.68 87.82 12.64 88.24 12.64C88.66 12.64 89.61 12.68 89.94 12.68C90.10 12.68 90.12 12.61 90.12 12.40C90.12 12.24 90.09 12.18 89.92 12.18L88.91 12.18C88.82 12.18 88.79 10.12 88.79 8.46C88.79 8.30 88.79 8.30 88.96 8.30L89.22 8.30C89.43 8.30 89.43 8.32 89.50 8.40L92.54 12.00C92.64 12.11 92.71 12.18 92.50 12.18L92.04 12.18C91.85 12.18 91.78 12.19 91.78 12.39C91.78 12.63 91.78 12.68 91.98 12.68C92.30 12.68 93.00 12.64 93.42 12.64C93.84 12.64 94.53 12.68 94.85 12.68C95.02 12.68 95.02 12.61 95.02 12.40C95.02 12.24 95.02 12.18 94.85 12.18L94.63 12.18C94.44 12.18 94.35 12.10 94.22 11.96L90.45 7.62C90.31 7.45 90.29 7.50 90.41 7.36C90.86 6.83 93.39 3.77 93.46 3.77L94.14 3.77C94.36 3.77 94.39 3.75 94.39 3.56C94.39 3.32 94.39 3.26 94.19 3.26C94.00 3.26 93.55 3.30 93.03 3.30C92.50 3.30 92.02 3.26 91.80 3.26C91.62 3.26 91.52 3.28 91.52 3.51C91.52 3.75 91.63 3.77 91.80 3.77L92.36 3.77C92.53 3.77 92.53 3.84 92.41 3.99C91.88 4.66 89.53 7.92 89.24 7.92L88.93 7.92C88.79 7.92 88.79 7.88 88.79 7.69L88.79 5.94C88.79 5.21 88.86 3.77 88.96 3.77L89.73 3.77C89.95 3.77 89.99 3.75 89.99 3.56C89.99 3.32 89.98 3.26 89.78 3.26C89.46 3.26 88.69 3.30 88.27 3.30C87.68 3.30 87.02 3.26 86.80 3.26C86.62 3.26 86.52 3.28 86.52 3.51C86.52 3.75 86.63 3.77 86.80 3.77L87.44 3.77C87.50 3.77 87.53 4.86 87.53 5.78L87.53 9.84C87.53 11.00 87.51 12.18 87.43 12.18L86.69 12.18C86.46 12.18 86.39 12.19 86.39 12.39ZM112.03 5.01C112.03 5.17 112.21 5.17 112.34 5.17C112.49 5.17 112.53 5.15 112.55 4.97L112.66 3.89C112.67 3.81 113.22 3.75 113.97 3.75L115.96 3.75C116.02 3.75 116.05 4.35 116.05 4.97C116.05 6.43 115.99 12.18 115.86 12.18L115.00 12.18C114.77 12.18 114.73 12.19 114.73 12.39C114.73 12.63 114.74 12.68 114.94 12.68C115.26 12.68 116.24 12.64 116.66 12.64C117.08 12.64 118.02 12.68 118.34 12.68C118.51 12.68 118.54 12.61 118.54 12.40C118.54 12.24 118.51 12.18 118.34 12.18L117.35 12.18C117.32 12.18 117.32 11.76 117.32 11.31C117.32 9.56 117.40 5.96 117.40 5.92C117.42 5.18 117.42 3.75 117.52 3.75L119.13 3.75C119.84 3.75 120.67 3.78 120.67 3.85C120.67 3.99 120.62 4.90 120.62 4.97C120.62 5.12 120.69 5.17 120.88 5.17C121.07 5.17 121.14 5.17 121.14 5.03C121.14 3.93 121.20 3.40 121.20 3.14C121.20 2.94 121.11 2.94 120.92 2.94C120.76 2.94 120.71 2.98 120.69 3.16C120.69 3.23 120.05 3.28 119.21 3.28L114.21 3.28C113.55 3.28 112.74 3.28 112.74 3.21L112.74 3.07C112.74 2.94 112.62 2.94 112.52 2.94C112.29 2.94 112.27 3.00 112.25 3.19C112.20 3.89 112.03 4.97 112.03 5.01ZM128.95 12.39C128.95 12.63 128.95 12.68 129.15 12.68C129.47 12.68 130.41 12.64 130.83 12.64C131.25 12.64 132.08 12.68 132.40 12.68C132.57 12.68 132.57 12.61 132.57 12.40C132.57 12.24 132.57 12.18 132.40 12.18L131.47 12.18C131.39 12.18 131.35 9.93 131.35 8.20C131.35 8.01 131.35 8.01 131.47 8.01L136.71 8.01C136.78 8.01 136.79 8.01 136.79 8.18L136.79 9.91C136.79 11.05 136.78 12.18 136.72 12.18L135.95 12.18C135.73 12.18 135.69 12.19 135.69 12.39C135.69 12.63 135.70 12.68 135.90 12.68C136.22 12.68 137.06 12.64 137.48 12.64C137.90 12.64 138.49 12.68 138.81 12.68C138.98 12.68 138.99 12.61 138.99 12.40C138.99 12.24 138.98 12.18 138.81 12.18L138.07 12.18C138.03 12.18 138.01 9.27 138.01 7.04C138.01 5.40 138.01 3.70 138.05 3.70L138.67 3.70C138.89 3.70 138.94 3.68 138.94 3.49C138.94 3.25 138.92 3.19 138.73 3.19C138.59 3.19 137.96 3.23 137.37 3.23C136.70 3.23 136.09 3.19 135.87 3.19C135.67 3.19 135.65 3.22 135.65 3.44C135.65 3.67 135.72 3.70 135.88 3.70L136.68 3.70C136.74 3.70 136.79 4.79 136.79 5.71L136.79 7.42C136.79 7.59 136.79 7.59 136.63 7.59L131.52 7.59C131.35 7.59 131.35 7.59 131.35 7.38C131.35 6.96 131.33 6.23 131.33 5.53C131.33 4.66 131.35 3.70 131.40 3.70L132.17 3.70C132.40 3.70 132.44 3.68 132.44 3.49C132.44 3.25 132.43 3.19 132.23 3.19C131.91 3.19 131.32 3.23 130.72 3.23C130.13 3.23 129.64 3.19 129.42 3.19C129.23 3.19 129.14 3.21 129.14 3.44C129.14 3.68 129.25 3.70 129.42 3.70L130.03 3.70C130.09 3.70 130.10 5.59 130.10 7.18L130.10 8.61C130.10 10.08 130.09 12.18 130.02 12.18L129.21 12.18C128.98 12.18 128.95 12.19 128.95 12.39ZM147.03 12.39C147.03 12.63 147.06 12.68 147.25 12.68C147.57 12.68 148.54 12.64 148.96 12.64C149.38 12.64 153.89 12.68 154.21 12.68C154.34 12.68 154.49 12.66 154.49 12.49C154.49 12.07 154.53 11.23 154.53 10.53C154.53 10.39 154.38 10.39 154.25 10.39C154.14 10.39 154.01 10.39 154.01 10.51C154 11.06 154 11.41 153.97 11.76C153.94 12.01 153.94 12.04 153.85 12.04C153.69 12.04 151.06 12.08 149.56 12.08C149.49 12.08 149.45 10.11 149.41 8.26C149.41 8.06 149.45 8.09 149.59 8.09L151.87 8.09C152.57 8.09 152.60 8.20 152.60 8.30L152.60 9.00C152.60 9.14 152.78 9.14 152.89 9.14C152.99 9.14 153.12 9.13 153.12 9.02C153.12 8.83 153.09 8.33 153.09 7.83C153.09 7.32 153.12 6.83 153.12 6.71C153.12 6.59 152.98 6.58 152.88 6.58C152.77 6.58 152.60 6.59 152.60 6.72L152.60 7.45C152.60 7.62 152.15 7.63 151.87 7.63L149.53 7.63C149.42 7.63 149.41 7.63 149.41 7.45C149.39 6.75 149.38 6.06 149.38 5.46C149.38 5.12 149.38 3.71 149.46 3.71C150.70 3.71 153.20 3.75 153.20 3.81C153.20 3.99 153.16 4.83 153.16 4.89C153.16 5.04 153.23 5.10 153.41 5.10C153.61 5.10 153.68 5.08 153.68 4.94C153.68 3.85 153.73 3.36 153.73 3.09C153.73 2.91 153.65 2.90 153.45 2.90C153.26 2.90 153.26 2.95 153.23 3.11C153.22 3.25 153.29 3.25 152.38 3.25C151.76 3.25 149.62 3.29 148.85 3.29C148.36 3.29 147.42 3.25 147.32 3.25C147.20 3.25 147.14 3.30 147.14 3.49C147.14 3.72 147.21 3.74 147.38 3.74L148.04 3.74C148.09 3.74 148.16 4.79 148.16 5.71C148.16 5.80 148.22 8.27 148.22 9.83L148.22 11.17C148.22 11.84 148.19 12.18 148.16 12.18L147.31 12.18C147.08 12.18 147.03 12.21 147.03 12.39ZM172.51 5.77C172.51 9.07 177.49 8.20 177.49 10.65C177.49 11.59 176.65 12.31 175.67 12.31C174.85 12.31 173.25 11.83 173.22 11.47L173.14 10.15C173.12 9.97 173.05 9.91 172.87 9.91L172.80 9.91C172.59 9.91 172.59 10.00 172.59 10.12C172.59 10.32 172.70 11.66 172.73 12.17C172.75 12.38 174.01 12.85 175.55 12.85C177.11 12.85 178.72 11.87 178.72 10.11C178.72 6.79 173.75 7.87 173.75 5.32C173.75 4.31 174.54 3.56 175.57 3.56C176.60 3.56 177.69 4.58 177.69 4.89C177.69 5.01 177.65 5.73 177.65 5.78C177.65 5.92 177.69 5.99 177.95 5.99C178.19 5.99 178.21 5.94 178.21 5.75C178.21 5.04 178.29 3.68 178.29 3.53C178.29 3.30 178.25 3.29 177.98 3.29C177.76 3.29 177.74 3.32 177.73 3.53C177.73 3.61 177.72 3.78 177.67 3.78C177.62 3.78 177.53 3.74 177.46 3.68C176.67 3.14 176.05 3.08 175.55 3.08C174.02 3.08 172.51 4.17 172.51 5.77ZM186.62 8.15C186.62 11.17 188.96 12.80 191.21 12.80C194.00 12.80 195.97 10.89 195.97 8.06C195.97 5.33 194.22 3.11 191.42 3.11C188.82 3.11 186.62 5.10 186.62 8.15ZM188.02 7.77C188.02 5.64 189.31 3.58 191.28 3.58C193.52 3.58 194.60 5.81 194.60 7.94C194.60 10.08 193.49 12.32 191.23 12.32C189.24 12.32 188.02 10.28 188.02 7.77ZM204.08 3.51C204.08 3.75 204.16 3.77 204.33 3.77L204.86 3.77C204.92 3.77 204.92 4.12 204.92 4.55C204.92 5.66 204.90 8.96 204.90 9.42C204.90 11.13 205.16 12.80 208.01 12.80C209.09 12.80 210.25 12.38 210.91 12.00C211.16 11.86 211.46 11.72 211.54 11.72C211.81 11.72 212.07 12.74 212.41 12.74C212.73 12.74 212.74 12.35 212.74 12.25C212.74 11.96 212.80 10.08 212.84 8.16C212.90 6.12 212.88 3.77 213.00 3.77L213.32 3.77C213.54 3.77 213.61 3.75 213.61 3.56C213.61 3.32 213.57 3.26 213.37 3.26C213.23 3.26 212.70 3.30 212.28 3.30C211.86 3.30 211.06 3.26 210.84 3.26C210.66 3.26 210.56 3.28 210.56 3.51C210.56 3.75 210.67 3.77 210.84 3.77L211.54 3.77C211.61 3.77 211.62 4.30 211.62 4.87L211.62 9.14C211.62 11.19 211.62 11.12 211.29 11.34C210.90 11.61 210.08 12.08 208.91 12.08C206.93 12.08 206.14 11.17 206.14 9.41C206.14 8.82 206.21 3.77 206.32 3.77L207.23 3.77C207.45 3.77 207.49 3.75 207.49 3.56C207.49 3.32 207.48 3.26 207.28 3.26C206.96 3.26 206.08 3.30 205.66 3.30C205.24 3.30 204.55 3.26 204.33 3.26C204.15 3.26 204.08 3.28 204.08 3.51ZM221.65 12.39C221.65 12.63 221.68 12.68 221.87 12.68C222.19 12.68 223.16 12.64 223.58 12.64C224 12.64 228.35 12.68 228.68 12.68C228.94 12.68 229.01 12.66 229.03 12.49C229.08 12.08 229.32 10.72 229.32 10.60C229.32 10.47 229.17 10.44 229.00 10.43C228.90 10.42 228.82 10.46 228.80 10.56L228.63 11.76C228.59 12.05 228.58 12.03 228.35 12.04C228.20 12.05 225.69 12.12 224.27 12.12C224.22 12.12 224.18 11.38 224.18 10.54L224.18 6.66C224.18 5.40 224.20 3.70 224.29 3.70L225.27 3.70C225.51 3.70 225.54 3.63 225.54 3.44C225.54 3.23 225.53 3.19 225.29 3.19C224.97 3.19 224.03 3.23 223.61 3.23C223.19 3.23 222.25 3.19 222.03 3.19C221.80 3.19 221.75 3.22 221.75 3.44C221.75 3.65 221.79 3.70 221.98 3.70L222.81 3.70C222.85 3.70 222.88 4.23 222.88 4.90L222.88 8.13C222.88 10.07 222.85 12.18 222.77 12.18L221.93 12.18C221.70 12.18 221.65 12.21 221.65 12.39ZM246.32 3.51C246.32 3.75 246.41 3.77 246.58 3.77L247.02 3.77C247.10 3.77 249.89 10.99 249.93 11.07C250.42 12.18 250.52 12.99 250.73 12.99C250.99 12.99 251.05 12.67 251.33 12.26C251.48 12.04 251.57 12.01 251.72 11.66L254.95 4.06C255.07 3.81 255.05 3.77 255.42 3.77C255.64 3.77 255.71 3.75 255.71 3.56C255.71 3.32 255.67 3.26 255.47 3.26C255.33 3.26 254.80 3.30 254.38 3.30C253.96 3.30 253.13 3.26 252.91 3.26C252.71 3.26 252.66 3.29 252.66 3.51C252.66 3.75 252.78 3.77 252.95 3.77L253.95 3.77C254.02 3.77 254.03 3.81 254.03 3.95C254.03 4.63 252.35 8.72 251.62 10.63C251.48 10.99 251.40 11.17 251.36 11.17C251.31 11.17 251.22 10.98 251.08 10.60C250.50 9.10 249.37 6.01 248.85 4.49C248.77 4.27 248.68 3.93 248.68 3.79L248.68 3.77L249.66 3.77C249.89 3.77 249.96 3.75 249.96 3.56C249.96 3.32 249.91 3.26 249.72 3.26C249.40 3.26 248.32 3.30 247.90 3.30C247.48 3.30 246.76 3.26 246.58 3.26C246.40 3.26 246.32 3.28 246.32 3.51ZM263.19 12.39C263.19 12.63 263.23 12.68 263.42 12.68C263.75 12.68 264.50 12.64 265.22 12.64C265.87 12.64 266.67 12.68 266.90 12.68C267.06 12.68 267.09 12.61 267.09 12.40C267.09 12.24 267.06 12.18 266.90 12.18L265.93 12.18C265.83 12.18 265.80 9.55 265.80 7.76L265.80 5.87C265.80 5.14 265.83 3.70 265.93 3.70L266.84 3.70C267.06 3.70 267.09 3.68 267.09 3.49C267.09 3.25 267.06 3.19 266.90 3.19C266.57 3.19 265.90 3.23 265.24 3.23C264.43 3.23 263.72 3.19 263.49 3.19C263.31 3.19 263.24 3.21 263.24 3.44C263.24 3.68 263.33 3.70 263.49 3.70L264.42 3.70C264.46 3.70 264.53 4.79 264.53 5.71L264.53 7.08C264.53 8.92 264.52 12.18 264.40 12.18L263.48 12.18C263.26 12.18 263.19 12.19 263.19 12.39ZM274.99 3.51C274.99 3.75 275.07 3.79 275.24 3.79L276.09 3.77C276.15 3.77 276.21 5.52 276.21 7.11L276.21 11.63C276.21 11.93 276.19 12.18 276.16 12.18L275.44 12.18C275.21 12.18 275.14 12.19 275.14 12.39C275.14 12.63 275.17 12.68 275.37 12.68C275.49 12.68 276.44 12.64 276.86 12.64C277.05 12.64 277.56 12.67 278.21 12.67C279.76 12.67 282.17 12.43 282.17 10.23C282.17 8.27 280.35 7.94 279.66 7.84C279.58 7.83 279.57 7.83 279.57 7.81C279.57 7.80 279.61 7.78 279.68 7.76C280.32 7.52 281.76 6.90 281.76 5.54C281.76 3.81 280.29 3.25 278.61 3.25C278.04 3.25 277.44 3.29 276.89 3.29C276.47 3.29 275.46 3.26 275.24 3.26C275.06 3.26 274.99 3.28 274.99 3.51ZM277.44 8.19C277.44 8.12 277.44 8.08 277.55 8.08L278.03 8.08C278.64 8.08 279.29 8.09 279.66 8.22C280.53 8.51 280.85 9.16 280.85 10.14C280.85 11.17 280.39 12.18 278.38 12.18L277.54 12.18C277.45 12.18 277.44 9.02 277.44 8.19ZM277.44 7.59L277.44 6.92C277.44 5.87 277.45 3.71 277.49 3.68C277.55 3.65 277.86 3.63 278.07 3.63C279.48 3.63 280.50 4.41 280.50 5.77C280.50 6.92 279.78 7.46 279.15 7.66C279.06 7.69 278.96 7.70 278.88 7.70C278.80 7.70 278.66 7.69 278.42 7.69L277.62 7.69C277.44 7.69 277.44 7.67 277.44 7.59ZM290.28 3.51C290.28 3.72 290.35 3.79 290.54 3.79L291.35 3.77C291.45 3.77 291.49 6.61 291.49 8.55L291.49 10.42C291.49 11.30 291.48 12.18 291.44 12.18L290.84 12.18C290.61 12.18 290.54 12.19 290.54 12.39C290.54 12.63 290.58 12.68 290.78 12.68C290.91 12.68 291.73 12.64 292.15 12.64C292.57 12.64 293.34 12.68 293.66 12.68C293.83 12.68 293.86 12.61 293.86 12.40C293.86 12.24 293.83 12.18 293.66 12.18L292.85 12.18C292.78 12.18 292.70 9.18 292.70 8.37C292.70 8.30 292.70 8.26 292.81 8.26C293.20 8.26 293.80 8.27 294.10 8.27C296.34 8.32 296.48 10.00 296.48 11.68L296.48 12.49C296.48 12.61 296.53 12.64 296.63 12.64C296.63 12.64 298.07 12.68 298.55 12.68C298.72 12.68 298.77 12.64 298.77 12.53C298.77 12.24 298.72 12.18 298.56 12.18L297.92 12.18C297.82 12.18 297.79 12.14 297.77 11.31C297.68 8.99 296.31 8.34 295.40 8.05C295.26 8.01 295.29 8.01 295.40 7.95C295.99 7.69 297.30 6.94 297.30 5.63C297.30 3.63 295.61 3.21 294.21 3.21C293.89 3.21 292.60 3.29 292.18 3.29C291.76 3.29 290.78 3.26 290.56 3.26C290.37 3.26 290.28 3.28 290.28 3.51ZM292.70 7.80L292.70 4.40C292.70 4.05 292.73 3.68 292.77 3.68C292.98 3.65 293.26 3.65 293.48 3.65C294.78 3.65 296.03 4.47 296.03 5.82C296.03 6.99 295.48 7.57 294.83 7.88C294.78 7.90 294.74 7.90 294.67 7.90C294.20 7.88 293.48 7.88 292.88 7.87C292.71 7.87 292.70 7.85 292.70 7.80ZM306.11 12.39C306.11 12.63 306.11 12.68 306.31 12.68C306.47 12.68 306.80 12.64 307.37 12.64C307.99 12.64 308.53 12.68 308.69 12.68C308.85 12.68 308.85 12.61 308.85 12.40C308.85 12.24 308.85 12.18 308.69 12.18L307.61 12.18C307.61 12.18 307.59 12.18 307.59 12.17C307.61 11.87 308.38 9.90 308.73 9.02C308.80 8.83 308.81 8.79 309.02 8.79L311.85 8.79C311.99 8.79 311.99 8.81 312.06 9.03C312.33 9.77 313.04 11.89 313.04 12.17C313.04 12.18 313.03 12.18 313.03 12.18L312.26 12.18C312.03 12.18 312.02 12.19 312.02 12.39C312.02 12.63 312.03 12.68 312.20 12.68C312.52 12.68 313.39 12.64 313.81 12.64C314.23 12.64 314.90 12.68 315.11 12.68C315.25 12.68 315.27 12.61 315.27 12.40C315.27 12.24 315.25 12.18 315.11 12.18L314.62 12.18C314.52 12.18 313.50 9.34 312.94 7.78L311.26 3.07C311.25 3.00 311.18 2.94 311.09 2.94C310.97 2.94 310.87 3.16 310.79 3.35C310.63 3.71 310.39 3.84 310.28 4.13L308.80 7.57C308.62 8.01 306.91 12.18 306.78 12.18L306.36 12.18C306.14 12.18 306.11 12.19 306.11 12.39ZM309.01 8.33C309.01 8.30 309.04 8.23 309.08 8.13L310.45 4.77C310.49 4.66 310.52 4.61 310.55 4.61C310.56 4.61 310.58 4.63 310.62 4.77L311.78 8.18C311.81 8.25 311.82 8.29 311.82 8.32C311.82 8.36 311.79 8.37 311.70 8.37L309.19 8.37C309.01 8.37 309.01 8.34 309.01 8.33ZM321.36 5.01C321.36 5.17 321.54 5.17 321.66 5.17C321.82 5.17 321.86 5.15 321.87 4.97L321.99 3.89C322 3.81 322.55 3.75 323.30 3.75L325.29 3.75C325.35 3.75 325.37 4.35 325.37 4.97C325.37 6.43 325.32 12.18 325.19 12.18L324.32 12.18C324.10 12.18 324.06 12.19 324.06 12.39C324.06 12.63 324.07 12.68 324.27 12.68C324.59 12.68 325.57 12.64 325.99 12.64C326.41 12.64 327.35 12.68 327.67 12.68C327.84 12.68 327.87 12.61 327.87 12.40C327.87 12.24 327.84 12.18 327.67 12.18L326.68 12.18C326.65 12.18 326.65 11.76 326.65 11.31C326.65 9.56 326.73 5.96 326.73 5.92C326.75 5.18 326.75 3.75 326.84 3.75L328.45 3.75C329.17 3.75 329.99 3.78 329.99 3.85C329.99 3.99 329.95 4.90 329.95 4.97C329.95 5.12 330.02 5.17 330.20 5.17C330.40 5.17 330.47 5.17 330.47 5.03C330.47 3.93 330.53 3.40 330.53 3.14C330.53 2.94 330.44 2.94 330.25 2.94C330.09 2.94 330.04 2.98 330.02 3.16C330.02 3.23 329.38 3.28 328.54 3.28L323.54 3.28C322.88 3.28 322.07 3.28 322.07 3.21L322.07 3.07C322.07 2.94 321.94 2.94 321.85 2.94C321.62 2.94 321.59 3.00 321.58 3.19C321.52 3.89 321.36 4.97 321.36 5.01ZM338.14 12.39C338.14 12.63 338.18 12.68 338.38 12.68C338.70 12.68 339.46 12.64 340.17 12.64C340.83 12.64 341.63 12.68 341.85 12.68C342.02 12.68 342.05 12.61 342.05 12.40C342.05 12.24 342.02 12.18 341.85 12.18L340.89 12.18C340.79 12.18 340.76 9.55 340.76 7.76L340.76 5.87C340.76 5.14 340.79 3.70 340.89 3.70L341.80 3.70C342.02 3.70 342.05 3.68 342.05 3.49C342.05 3.25 342.02 3.19 341.85 3.19C341.53 3.19 340.86 3.23 340.20 3.23C339.39 3.23 338.67 3.19 338.45 3.19C338.27 3.19 338.20 3.21 338.20 3.44C338.20 3.68 338.28 3.70 338.45 3.70L339.37 3.70C339.42 3.70 339.49 4.79 339.49 5.71L339.49 7.08C339.49 8.92 339.47 12.18 339.36 12.18L338.44 12.18C338.21 12.18 338.14 12.19 338.14 12.39ZM350.01 8.15C350.01 11.17 352.35 12.80 354.61 12.80C357.39 12.80 359.37 10.89 359.37 8.06C359.37 5.33 357.62 3.11 354.82 3.11C352.21 3.11 350.01 5.10 350.01 8.15ZM351.41 7.77C351.41 5.64 352.70 3.58 354.68 3.58C356.92 3.58 357.99 5.81 357.99 7.94C357.99 10.08 356.89 12.32 354.62 12.32C352.63 12.32 351.41 10.28 351.41 7.77ZM367.47 12.39C367.47 12.63 367.49 12.68 367.68 12.68C367.86 12.68 368.24 12.64 368.86 12.64C369.49 12.64 370.05 12.68 370.37 12.68C370.54 12.68 370.54 12.61 370.54 12.40C370.54 12.24 370.54 12.18 370.37 12.18L369.17 12.18C369.12 12.18 369.11 11.54 369.11 10.79C369.11 9.46 369.12 7.48 369.12 5.99C369.12 5.25 369.12 4.84 369.14 4.28C369.14 4.02 369.21 4.14 369.33 4.28L376.22 12.66C376.31 12.75 376.39 12.89 376.50 12.89C376.61 12.89 376.68 12.77 376.68 12.54C376.68 12.39 376.85 6.65 376.87 4.48C376.87 4.06 376.89 3.70 376.92 3.70L377.55 3.70C377.78 3.70 377.83 3.68 377.83 3.49C377.83 3.25 377.83 3.19 377.64 3.19C377.44 3.19 377.01 3.23 376.45 3.23C375.83 3.23 375.03 3.19 374.93 3.19C374.77 3.19 374.77 3.26 374.77 3.47C374.77 3.64 374.77 3.70 374.93 3.70L376.24 3.70C376.25 3.70 376.25 4.33 376.25 4.44C376.25 5.85 376.28 8.33 376.28 9.70L376.28 10.29C376.28 10.57 376.26 10.65 376.04 10.37L370.36 3.39C370.24 3.25 370.22 3.19 370.05 3.19C369.96 3.19 369.59 3.23 369.28 3.23C368.98 3.23 367.91 3.19 367.71 3.19C367.54 3.19 367.51 3.26 367.51 3.47C367.51 3.64 367.54 3.70 367.71 3.70L368.62 3.70C368.62 4.17 368.58 8.53 368.51 10.79C368.48 11.69 368.49 12.18 368.38 12.18L367.74 12.18C367.51 12.18 367.47 12.19 367.47 12.39ZM395.74 8.15C395.74 11.17 398.08 12.80 400.33 12.80C403.12 12.80 405.09 10.89 405.09 8.06C405.09 5.33 403.34 3.11 400.54 3.11C397.94 3.11 395.74 5.10 395.74 8.15ZM397.14 7.77C397.14 5.64 398.43 3.58 400.40 3.58C402.64 3.58 403.72 5.81 403.72 7.94C403.72 10.08 402.61 12.32 400.34 12.32C398.36 12.32 397.14 10.28 397.14 7.77ZM413.20 3.49C413.20 3.72 413.31 3.74 413.48 3.74L414.09 3.74C414.15 3.74 414.22 4.79 414.22 5.71C414.22 5.80 414.27 8.27 414.27 9.83L414.27 11.17C414.27 11.84 414.26 12.18 414.20 12.18L413.62 12.18C413.39 12.18 413.32 12.19 413.32 12.39C413.32 12.63 413.34 12.68 413.53 12.68C413.74 12.68 414.58 12.64 415.00 12.64C415.42 12.64 416.36 12.68 416.68 12.68C416.85 12.68 416.88 12.61 416.88 12.40C416.88 12.24 416.85 12.18 416.68 12.18L415.55 12.18C415.49 12.18 415.51 10.16 415.46 8.33C415.46 8.08 415.45 8.09 415.65 8.09L418.07 8.09C418.77 8.09 418.80 8.19 418.80 8.30L418.80 9.16C418.80 9.28 418.98 9.28 419.09 9.28C419.19 9.28 419.31 9.28 419.31 9.17C419.31 8.99 419.29 8.33 419.29 7.83C419.29 7.32 419.31 6.82 419.31 6.69C419.31 6.58 419.20 6.58 419.08 6.58C418.91 6.58 418.80 6.58 418.80 6.71L418.80 7.45C418.80 7.62 418.35 7.63 418.07 7.63L415.65 7.63C415.44 7.63 415.46 7.66 415.46 7.45C415.45 7.13 415.44 6.15 415.44 5.26C415.44 4.52 415.45 3.71 415.52 3.71C416.92 3.71 419.10 3.75 419.40 3.79C419.40 3.96 419.36 4.82 419.36 4.89C419.36 5.04 419.43 5.10 419.61 5.10C419.80 5.10 419.87 5.08 419.87 4.94C419.87 3.85 419.93 3.36 419.93 3.09C419.93 2.93 419.85 2.90 419.65 2.90C419.52 2.90 419.45 2.90 419.43 3.11C419.41 3.25 419.48 3.25 418.53 3.25C417.93 3.25 415.65 3.29 414.90 3.29C414.41 3.29 413.48 3.25 413.38 3.25C413.25 3.25 413.20 3.30 413.20 3.49ZM437.28 3.44C437.28 3.68 437.36 3.70 437.53 3.70L437.93 3.70C438.06 3.70 440.31 7.74 440.72 8.50C440.78 8.60 440.82 8.65 440.82 8.81C440.82 10.50 440.80 12.18 440.68 12.18L439.96 12.18C439.74 12.18 439.70 12.19 439.70 12.39C439.70 12.63 439.71 12.68 439.91 12.68C440.10 12.68 440.92 12.64 441.50 12.64C442.33 12.64 442.86 12.68 443.18 12.68C443.35 12.68 443.38 12.61 443.38 12.40C443.38 12.24 443.35 12.18 443.18 12.18L442.22 12.18C442.12 12.18 442.09 9.72 442.09 8.22C442.09 8.18 442.09 8.15 442.13 8.09C442.68 7.22 444.63 3.70 444.70 3.70L445.17 3.70C445.34 3.70 445.44 3.68 445.44 3.44C445.44 3.22 445.35 3.19 445.17 3.19C444.95 3.19 444.71 3.23 444.11 3.23C443.52 3.23 443.18 3.19 443.02 3.19C442.82 3.19 442.78 3.25 442.78 3.49C442.78 3.68 442.85 3.70 443.07 3.70L443.80 3.70C443.81 3.70 443.83 3.71 443.83 3.74C443.83 4.05 442.26 6.99 441.88 7.71C441.77 7.92 441.77 7.88 441.66 7.67C441.25 6.89 439.96 4.56 439.67 3.85C439.61 3.71 439.60 3.70 439.78 3.70L440.61 3.70C440.83 3.70 440.86 3.68 440.86 3.49C440.86 3.25 440.82 3.19 440.66 3.19C440.43 3.19 439.81 3.23 439.01 3.23C438.20 3.23 437.71 3.19 437.53 3.19C437.35 3.19 437.28 3.21 437.28 3.44ZM452.56 8.15C452.56 11.17 454.90 12.80 457.16 12.80C459.94 12.80 461.92 10.89 461.92 8.06C461.92 5.33 460.17 3.11 457.37 3.11C454.76 3.11 452.56 5.10 452.56 8.15ZM453.96 7.77C453.96 5.64 455.25 3.58 457.23 3.58C459.47 3.58 460.54 5.81 460.54 7.94C460.54 10.08 459.44 12.32 457.17 12.32C455.18 12.32 453.96 10.28 453.96 7.77ZM470.02 3.51C470.02 3.75 470.11 3.77 470.27 3.77L470.81 3.77C470.86 3.77 470.86 4.12 470.86 4.55C470.86 5.66 470.85 8.96 470.85 9.42C470.85 11.13 471.10 12.80 473.96 12.80C475.03 12.80 476.20 12.38 476.85 12.00C477.11 11.86 477.40 11.72 477.48 11.72C477.75 11.72 478.02 12.74 478.35 12.74C478.67 12.74 478.69 12.35 478.69 12.25C478.69 11.96 478.74 10.08 478.79 8.16C478.84 6.12 478.83 3.77 478.94 3.77L479.26 3.77C479.49 3.77 479.56 3.75 479.56 3.56C479.56 3.32 479.51 3.26 479.32 3.26C479.18 3.26 478.65 3.30 478.23 3.30C477.81 3.30 477.01 3.26 476.78 3.26C476.60 3.26 476.50 3.28 476.50 3.51C476.50 3.75 476.62 3.77 476.78 3.77L477.48 3.77C477.55 3.77 477.57 4.30 477.57 4.87L477.57 9.14C477.57 11.19 477.57 11.12 477.23 11.34C476.84 11.61 476.03 12.08 474.85 12.08C472.88 12.08 472.08 11.17 472.08 9.41C472.08 8.82 472.15 3.77 472.26 3.77L473.17 3.77C473.40 3.77 473.44 3.75 473.44 3.56C473.44 3.32 473.42 3.26 473.23 3.26C472.91 3.26 472.02 3.30 471.60 3.30C471.18 3.30 470.50 3.26 470.27 3.26C470.09 3.26 470.02 3.28 470.02 3.51ZM487.59 3.51C487.59 3.72 487.66 3.79 487.86 3.79L488.67 3.77C488.77 3.77 488.81 6.61 488.81 8.55L488.81 10.42C488.81 11.30 488.80 12.18 488.75 12.18L488.15 12.18C487.93 12.18 487.86 12.19 487.86 12.39C487.86 12.63 487.90 12.68 488.10 12.68C488.22 12.68 489.05 12.64 489.47 12.64C489.89 12.64 490.66 12.68 490.98 12.68C491.15 12.68 491.18 12.61 491.18 12.40C491.18 12.24 491.15 12.18 490.98 12.18L490.17 12.18C490.10 12.18 490.01 9.18 490.01 8.37C490.01 8.30 490.01 8.26 490.13 8.26C490.52 8.26 491.12 8.27 491.41 8.27C493.65 8.32 493.79 10.00 493.79 11.68L493.79 12.49C493.79 12.61 493.85 12.64 493.95 12.64C493.95 12.64 495.39 12.68 495.87 12.68C496.03 12.68 496.09 12.64 496.09 12.53C496.09 12.24 496.03 12.18 495.88 12.18L495.24 12.18C495.14 12.18 495.11 12.14 495.08 11.31C495.00 8.99 493.63 8.34 492.72 8.05C492.58 8.01 492.60 8.01 492.72 7.95C493.30 7.69 494.62 6.94 494.62 5.63C494.62 3.63 492.93 3.21 491.53 3.21C491.20 3.21 489.92 3.29 489.50 3.29C489.08 3.29 488.10 3.26 487.87 3.26C487.69 3.26 487.59 3.28 487.59 3.51ZM490.01 7.80L490.01 4.40C490.01 4.05 490.04 3.68 490.08 3.68C490.29 3.65 490.57 3.65 490.80 3.65C492.10 3.65 493.35 4.47 493.35 5.82C493.35 6.99 492.80 7.57 492.14 7.88C492.10 7.90 492.06 7.90 491.99 7.90C491.51 7.88 490.80 7.88 490.20 7.87C490.03 7.87 490.01 7.85 490.01 7.80ZM513.37 12.39C513.37 12.63 513.38 12.68 513.58 12.68C513.76 12.68 514.14 12.64 514.75 12.64C515.38 12.64 515.94 12.68 516.26 12.68C516.43 12.68 516.43 12.61 516.43 12.40C516.43 12.24 516.43 12.18 516.26 12.18L515.06 12.18C515.02 12.18 515.00 11.54 515.00 10.79C515.00 9.46 515.02 7.48 515.02 5.99C515.02 5.25 515.02 4.84 515.03 4.28C515.03 4.02 515.10 4.14 515.23 4.28L522.12 12.66C522.20 12.75 522.28 12.89 522.40 12.89C522.51 12.89 522.58 12.77 522.58 12.54C522.58 12.39 522.75 6.65 522.76 4.48C522.76 4.06 522.79 3.70 522.82 3.70L523.45 3.70C523.67 3.70 523.73 3.68 523.73 3.49C523.73 3.25 523.73 3.19 523.53 3.19C523.33 3.19 522.90 3.23 522.34 3.23C521.72 3.23 520.93 3.19 520.83 3.19C520.66 3.19 520.66 3.26 520.66 3.47C520.66 3.64 520.66 3.70 520.83 3.70L522.13 3.70C522.14 3.70 522.14 4.33 522.14 4.44C522.14 5.85 522.17 8.33 522.17 9.70L522.17 10.29C522.17 10.57 522.16 10.65 521.93 10.37L516.25 3.39C516.14 3.25 516.11 3.19 515.94 3.19C515.86 3.19 515.48 3.23 515.17 3.23C514.88 3.23 513.80 3.19 513.60 3.19C513.44 3.19 513.41 3.26 513.41 3.47C513.41 3.64 513.44 3.70 513.60 3.70L514.51 3.70C514.51 4.17 514.47 8.53 514.40 10.79C514.37 11.69 514.39 12.18 514.28 12.18L513.63 12.18C513.41 12.18 513.37 12.19 513.37 12.39ZM531.62 12.39C531.62 12.63 531.62 12.68 531.82 12.68C531.99 12.68 532.31 12.64 532.88 12.64C533.50 12.64 534.04 12.68 534.20 12.68C534.37 12.68 534.37 12.61 534.37 12.40C534.37 12.24 534.37 12.18 534.20 12.18L533.12 12.18C533.12 12.18 533.11 12.18 533.11 12.17C533.12 11.87 533.89 9.90 534.24 9.02C534.31 8.83 534.32 8.79 534.53 8.79L537.36 8.79C537.50 8.79 537.50 8.81 537.57 9.03C537.84 9.77 538.55 11.89 538.55 12.17C538.55 12.18 538.54 12.18 538.54 12.18L537.77 12.18C537.54 12.18 537.53 12.19 537.53 12.39C537.53 12.63 537.54 12.68 537.71 12.68C538.03 12.68 538.90 12.64 539.32 12.64C539.74 12.64 540.41 12.68 540.62 12.68C540.76 12.68 540.78 12.61 540.78 12.40C540.78 12.24 540.76 12.18 540.62 12.18L540.13 12.18C540.04 12.18 539.01 9.34 538.45 7.78L536.77 3.07C536.76 3.00 536.69 2.94 536.61 2.94C536.48 2.94 536.38 3.16 536.30 3.35C536.14 3.71 535.91 3.84 535.79 4.13L534.31 7.57C534.13 8.01 532.42 12.18 532.29 12.18L531.87 12.18C531.65 12.18 531.62 12.19 531.62 12.39ZM534.52 8.33C534.52 8.30 534.55 8.23 534.59 8.13L535.96 4.77C536.00 4.66 536.03 4.61 536.06 4.61C536.07 4.61 536.09 4.63 536.13 4.77L537.29 8.18C537.32 8.25 537.33 8.29 537.33 8.32C537.33 8.36 537.31 8.37 537.21 8.37L534.70 8.37C534.52 8.37 534.52 8.34 534.52 8.33ZM548.46 12.39C548.46 12.63 548.49 12.68 548.69 12.68C548.93 12.68 549.43 12.64 549.85 12.64C550.27 12.64 550.76 12.68 551.08 12.68C551.25 12.68 551.28 12.61 551.28 12.40C551.28 12.24 551.25 12.18 551.08 12.18L550.12 12.18C550.06 12.18 550.05 11.54 550.05 10.79C550.05 8.96 550.09 6.13 550.16 4.28C550.19 3.88 550.21 3.91 550.35 4.27L553.62 12.32C553.71 12.54 553.78 12.74 553.90 12.74C553.99 12.74 554.06 12.63 554.15 12.45C554.48 11.79 554.67 11.75 554.93 11.09L557.52 4.47C557.65 4.16 557.69 4.02 557.70 4.47C557.73 5.66 557.77 8.47 557.77 9.74C557.77 10.99 557.73 12.18 557.68 12.18L557.05 12.18C556.82 12.18 556.75 12.19 556.75 12.39C556.75 12.63 556.78 12.68 556.98 12.68C557.17 12.68 557.87 12.64 558.47 12.64C558.89 12.64 559.65 12.68 559.97 12.68C560.14 12.68 560.17 12.61 560.17 12.40C560.17 12.22 560.11 12.18 559.94 12.18L559.22 12.18C559.10 12.18 559.01 8.44 559.01 6.03L559.01 4.77C559.01 4.17 559.03 3.77 559.08 3.70L559.73 3.70C559.96 3.70 560.00 3.68 560.00 3.49C560.00 3.25 559.99 3.19 559.79 3.19C559.47 3.19 558.78 3.23 558.36 3.23L557.69 3.23C557.47 3.23 557.44 3.29 557.33 3.58L554.58 10.72C554.50 10.95 554.47 11.02 554.36 10.74L551.42 3.40C551.35 3.22 551.29 3.19 551.15 3.19C551.07 3.19 550.58 3.23 550.27 3.23C549.77 3.23 548.91 3.19 548.72 3.19C548.58 3.19 548.58 3.26 548.58 3.47C548.58 3.64 548.58 3.70 548.72 3.70L549.42 3.70C549.68 3.70 549.68 3.72 549.68 3.84C549.68 4.82 549.47 9.94 549.43 10.79C549.39 11.55 549.39 12.18 549.33 12.18L548.76 12.18C548.53 12.18 548.46 12.19 548.46 12.39ZM568.06 12.39C568.06 12.63 568.09 12.68 568.29 12.68C568.61 12.68 569.58 12.64 570.00 12.64C570.42 12.64 574.92 12.68 575.25 12.68C575.37 12.68 575.53 12.66 575.53 12.49C575.53 12.07 575.57 11.23 575.57 10.53C575.57 10.39 575.41 10.39 575.29 10.39C575.18 10.39 575.05 10.39 575.05 10.51C575.04 11.06 575.04 11.41 575.01 11.76C574.98 12.01 574.98 12.04 574.88 12.04C574.73 12.04 572.10 12.08 570.60 12.08C570.53 12.08 570.49 10.11 570.44 8.26C570.44 8.06 570.49 8.09 570.63 8.09L572.91 8.09C573.61 8.09 573.64 8.20 573.64 8.30L573.64 9.00C573.64 9.14 573.82 9.14 573.93 9.14C574.03 9.14 574.15 9.13 574.15 9.02C574.15 8.83 574.13 8.33 574.13 7.83C574.13 7.32 574.15 6.83 574.15 6.71C574.15 6.59 574.01 6.58 573.92 6.58C573.80 6.58 573.64 6.59 573.64 6.72L573.64 7.45C573.64 7.62 573.19 7.63 572.91 7.63L570.57 7.63C570.46 7.63 570.44 7.63 570.44 7.45C570.43 6.75 570.42 6.06 570.42 5.46C570.42 5.12 570.42 3.71 570.50 3.71C571.73 3.71 574.24 3.75 574.24 3.81C574.24 3.99 574.20 4.83 574.20 4.89C574.20 5.04 574.27 5.10 574.45 5.10C574.64 5.10 574.71 5.08 574.71 4.94C574.71 3.85 574.77 3.36 574.77 3.09C574.77 2.91 574.69 2.90 574.49 2.90C574.29 2.90 574.29 2.95 574.27 3.11C574.25 3.25 574.32 3.25 573.41 3.25C572.80 3.25 570.65 3.29 569.88 3.29C569.39 3.29 568.46 3.25 568.36 3.25C568.23 3.25 568.18 3.30 568.18 3.49C568.18 3.72 568.25 3.74 568.41 3.74L569.07 3.74C569.13 3.74 569.20 4.79 569.20 5.71C569.20 5.80 569.25 8.27 569.25 9.83L569.25 11.17C569.25 11.84 569.23 12.18 569.20 12.18L568.34 12.18C568.12 12.18 568.06 12.21 568.06 12.39Z"></path></g></svg>