<svg data-v-fde0c5aa="" xmlns="http://www.w3.org/2000/svg" viewBox="0 0 300 300" class="font"><!----><defs data-v-fde0c5aa=""><!----></defs><rect data-v-fde0c5aa="" fill="transparent" x="0" y="0" width="300px" height="300px" class="logo-background-square"></rect><defs data-v-fde0c5aa=""><linearGradient data-v-fde0c5aa="" gradientTransform="rotate(25)" id="b70b7b36-a4b0-4c3a-86d5-5b6518831edc" x1="0%" y1="0%" x2="100%" y2="0%"><stop data-v-fde0c5aa="" offset="0%" stop-color="#B4373D" stop-opacity="1"></stop><stop data-v-fde0c5aa="" offset="100%" stop-color="#B23ACB" stop-opacity="1"></stop></linearGradient></defs><g data-v-fde0c5aa="" id="e3026889-6bc1-4a6e-8d1d-67cdbae1dc23" fill="url(#b70b7b36-a4b0-4c3a-86d5-5b6518831edc)" transform="matrix(4.518381725304026,0,0,4.518381725304026,37.15341953460377,112.54261351505991)"><path d="M2.90 12.35L2.90 12.35Q3.29 12.35 3.76 12.10Q4.23 11.84 4.23 11.34L4.23 11.34Q4.23 10.53 2.56 9.94L2.56 9.94Q2.16 9.80 1.90 9.67Q1.64 9.55 1.33 9.32Q1.02 9.10 0.87 8.78Q0.71 8.46 0.71 8.02L0.71 8.02Q0.71 7.24 1.29 6.78Q1.86 6.33 2.67 6.33L2.67 6.33Q3.15 6.33 3.65 6.54Q4.14 6.75 4.21 6.75L4.21 6.75Q4.38 6.75 4.38 6.47L4.38 6.47L4.70 6.47L4.70 8.15L4.40 8.15Q4.31 7.56 3.83 7.15Q3.35 6.75 2.72 6.75L2.72 6.75Q2.27 6.75 1.97 6.96Q1.67 7.17 1.67 7.53L1.67 7.53Q1.67 7.74 1.75 7.92Q1.83 8.09 1.92 8.20Q2.00 8.30 2.23 8.43Q2.46 8.55 2.58 8.60Q2.70 8.65 3.02 8.76Q3.33 8.88 3.44 8.92L3.44 8.92Q4.17 9.20 4.69 9.71Q5.21 10.22 5.21 10.89L5.21 10.89Q5.21 11.75 4.52 12.26Q3.84 12.77 2.79 12.77L2.79 12.77Q2.28 12.77 1.81 12.53Q1.33 12.29 1.27 12.29L1.27 12.29Q1.19 12.29 1.08 12.40Q0.97 12.52 0.97 12.63L0.97 12.63L0.63 12.63L0.63 10.65L0.94 10.65Q1.04 11.37 1.60 11.86Q2.17 12.35 2.90 12.35ZM7.59 4.44L8.19 4.44L8.19 6.47L9.39 6.47L9.39 6.89L8.19 6.89L8.19 11.34Q8.19 11.77 8.34 12.01Q8.50 12.24 8.92 12.24L8.92 12.24Q9.17 12.24 9.43 11.99Q9.69 11.75 9.79 11.31L9.79 11.31L10.12 11.48Q9.83 12.77 8.44 12.77L8.44 12.77Q6.85 12.77 6.85 11.23L6.85 11.23L6.85 6.89L5.87 6.89L5.87 6.47Q6.52 6.47 7.06 5.92Q7.59 5.38 7.59 4.44L7.59 4.44ZM11.90 7.50L11.90 7.50Q12.10 7.50 12.24 7.64Q12.39 7.78 12.39 8.08L12.39 8.08Q12.39 8.32 12.20 8.44Q12.01 8.57 11.76 8.57L11.76 8.57Q11.49 8.57 11.33 8.38Q11.16 8.19 11.16 7.87L11.16 7.87Q11.16 7.14 11.76 6.73Q12.36 6.33 13.47 6.33L13.47 6.33Q14.77 6.33 15.38 6.97Q15.99 7.62 15.99 8.68L15.99 8.68L15.99 11.45Q15.99 11.90 16.14 12.11Q16.28 12.32 16.49 12.32L16.49 12.32Q16.67 12.32 16.82 12.22Q16.97 12.12 16.97 11.98L16.97 11.98L17.22 11.98Q17.22 12.38 16.93 12.56Q16.65 12.74 15.93 12.74L15.93 12.74Q15.23 12.74 14.94 12.17L14.94 12.17Q14.11 12.77 12.88 12.77L12.88 12.77Q10.78 12.77 10.78 11.06L10.78 11.06Q10.78 10.70 11.04 10.40Q11.30 10.11 11.79 9.91Q12.28 9.72 12.71 9.60Q13.15 9.48 13.80 9.33Q14.45 9.18 14.73 9.10L14.73 9.10Q14.73 7.92 14.42 7.38Q14.11 6.83 13.33 6.83L13.33 6.83Q12.07 6.83 11.90 7.50ZM14.81 11.82L14.81 11.82Q14.73 11.51 14.73 11.06L14.73 11.06L14.73 9.41Q14.57 9.46 14.20 9.56Q13.83 9.66 13.60 9.73Q13.37 9.80 13.05 9.94Q12.73 10.08 12.54 10.22Q12.36 10.36 12.22 10.59Q12.08 10.82 12.08 11.09L12.08 11.09Q12.08 11.76 12.34 12.03Q12.60 12.29 13.12 12.29L13.12 12.29Q14.04 12.29 14.81 11.82ZM20.55 12.63L17.53 12.63L17.53 12.33Q18.28 12.33 18.41 12.05L18.41 12.05L18.41 7.32Q17.54 7.25 17.53 7.25L17.53 7.25L17.53 6.93Q17.79 6.93 18.57 6.63Q19.35 6.33 19.67 6.33L19.67 6.33L19.67 6.94Q20.37 6.33 21.06 6.33L21.06 6.33Q21.69 6.33 22.11 6.57Q22.54 6.80 22.54 7.10L22.54 7.10Q22.54 7.60 21.98 7.60L21.98 7.60Q21.69 7.60 21.45 7.20Q21.21 6.80 20.90 6.80L20.90 6.80Q20.36 6.80 19.67 7.41L19.67 7.41L19.67 12.05Q19.80 12.33 20.55 12.33L20.55 12.33L20.55 12.63ZM25.52 12.35L25.52 12.35Q25.91 12.35 26.38 12.10Q26.85 11.84 26.85 11.34L26.85 11.34Q26.85 10.53 25.19 9.94L25.19 9.94Q24.78 9.80 24.52 9.67Q24.26 9.55 23.95 9.32Q23.65 9.10 23.49 8.78Q23.34 8.46 23.34 8.02L23.34 8.02Q23.34 7.24 23.91 6.78Q24.49 6.33 25.30 6.33L25.30 6.33Q25.77 6.33 26.27 6.54Q26.77 6.75 26.84 6.75L26.84 6.75Q27.01 6.75 27.01 6.47L27.01 6.47L27.33 6.47L27.33 8.15L27.02 8.15Q26.94 7.56 26.45 7.15Q25.97 6.75 25.34 6.75L25.34 6.75Q24.89 6.75 24.59 6.96Q24.29 7.17 24.29 7.53L24.29 7.53Q24.29 7.74 24.37 7.92Q24.46 8.09 24.54 8.20Q24.63 8.30 24.86 8.43Q25.09 8.55 25.21 8.60Q25.33 8.65 25.64 8.76Q25.96 8.88 26.07 8.92L26.07 8.92Q26.80 9.20 27.31 9.71Q27.83 10.22 27.83 10.89L27.83 10.89Q27.83 11.75 27.15 12.26Q26.46 12.77 25.41 12.77L25.41 12.77Q24.91 12.77 24.43 12.53Q23.95 12.29 23.90 12.29L23.90 12.29Q23.81 12.29 23.70 12.40Q23.59 12.52 23.59 12.63L23.59 12.63L23.25 12.63L23.25 10.65L23.56 10.65Q23.66 11.37 24.23 11.86Q24.79 12.35 25.52 12.35ZM34.66 9.25L30.17 9.25Q30.18 10.43 30.85 11.33Q31.51 12.24 32.34 12.24L32.34 12.24Q33.56 12.24 34.30 11.31L34.30 11.31L34.64 11.48Q34.23 12.15 33.58 12.46Q32.93 12.77 31.86 12.77L31.86 12.77Q31.33 12.77 30.84 12.61Q30.35 12.45 29.88 12.07Q29.40 11.70 29.12 10.98Q28.84 10.25 28.84 9.24L28.84 9.24Q28.84 8.01 29.60 7.17Q30.37 6.33 31.72 6.33L31.72 6.33Q33.21 6.33 33.94 7.16Q34.66 7.99 34.66 9.25L34.66 9.25ZM30.18 8.82L30.18 8.82L33.29 8.82Q33.21 7.81 32.87 7.28Q32.52 6.75 31.67 6.75L31.67 6.75Q31.18 6.75 30.72 7.32Q30.27 7.90 30.18 8.82ZM41.57 9.25L37.07 9.25Q37.09 10.43 37.75 11.33Q38.42 12.24 39.24 12.24L39.24 12.24Q40.46 12.24 41.20 11.31L41.20 11.31L41.54 11.48Q41.13 12.15 40.48 12.46Q39.83 12.77 38.77 12.77L38.77 12.77Q38.23 12.77 37.74 12.61Q37.25 12.45 36.78 12.07Q36.30 11.70 36.02 10.98Q35.74 10.25 35.74 9.24L35.74 9.24Q35.74 8.01 36.51 7.17Q37.27 6.33 38.63 6.33L38.63 6.33Q40.11 6.33 40.84 7.16Q41.57 7.99 41.57 9.25L41.57 9.25ZM37.09 8.82L37.09 8.82L40.19 8.82Q40.11 7.81 39.77 7.28Q39.42 6.75 38.57 6.75L38.57 6.75Q38.08 6.75 37.63 7.32Q37.17 7.90 37.09 8.82ZM47.18 6.61L47.18 6.61L47.18 4.80Q47.18 4.80 46.30 4.73L46.30 4.73L46.30 4.41Q46.56 4.41 47.34 4.11Q48.12 3.81 48.44 3.81L48.44 3.81L48.44 11.77L49.32 11.84L49.32 12.17Q49.06 12.17 48.28 12.47Q47.50 12.77 47.18 12.77L47.18 12.77L47.18 12.31Q46.51 12.77 45.50 12.77L45.50 12.77Q45.04 12.77 44.58 12.61Q44.13 12.45 43.67 12.10Q43.22 11.76 42.93 11.09Q42.64 10.42 42.64 9.52L42.64 9.52Q42.64 7.95 43.52 7.11Q44.39 6.27 45.81 6.27L45.81 6.27Q46.61 6.27 47.18 6.61ZM47.18 11.84L47.18 7.04Q46.68 6.75 45.89 6.75L45.89 6.75Q45.12 6.75 44.55 7.49Q43.97 8.23 43.97 9.52L43.97 9.52Q43.97 10.37 44.47 11.33Q44.97 12.29 45.64 12.29L45.64 12.29Q46.56 12.29 47.18 11.84L47.18 11.84Z"></path></g><!----><!----></svg>